<svg height="40px" viewBox="-20 -35 40 40" width="40px" xmlns="http://www.w3.org/2000/svg"><path d="m590 189h-20c-5.523438 0-10 4.476562-10 10s4.476562 10 10 10h20c5.523438 0 10-4.476562 10-10s-4.476562-10-10-10zm0 0"/><path d="m370 9v20c0 5.523438 4.476562 10 10 10s10-4.476562 10-10v-20c0-5.523438-4.476562-10-10-10s-10 4.476562-10 10zm0 0"/><path d="m527.070312 86.070312 20-20c2.597657-2.507812 3.640626-6.230468 2.726563-9.726562s-3.644531-6.226562-7.140625-7.140625-7.21875.128906-9.726562 2.726563l-20 20c-2.597657 2.507812-3.640626 6.230468-2.726563 9.726562s3.644531 6.226562 7.140625 7.140625 7.21875-.128906 9.726562-2.726563zm0 0"/><path d="m0 354.5625c0 56.605469 50.371094 104.4375 110 104.4375 5.523438 0 10-4.476562 10-10s-4.476562-10-10-10c-48.789062 0-90-38.671875-90-84.4375.371094-46.289062 37.714844-83.769531 84-84.3125 3.210938-.09375 6.1875-1.71875 7.988281-4.378906 1.804688-2.65625 2.222657-6.019532 1.121094-9.039063-4.066406-11.050781-6.160156-22.730469-6.191406-34.503906.777343-57.722656 48.105469-103.933594 105.832031-103.328125 25.554688.035156 50.257812 9.1875 69.664062 25.820312 2.265626 1.949219 4.457032 4 6.546876 6.097657.640624.652343 1.328124 1.269531 2 2.003906 2.554687 2.765625 4.960937 5.671875 7.207031 8.699219.542969.71875 1.082031 1.4375 1.601562 2.167968 2.21875 3.132813 4.261719 6.378907 6.121094 9.734376.359375.648437.691406 1.316406 1 1.996093 1.902344 3.578125 3.59375 7.269531 5.058594 11.050781.980469 2.578126 2.976562 4.636719 5.527343 5.691407 2.546876 1.054687 5.417969 1.011719 7.933594-.121094 10.105469-4.605469 21.082032-6.992187 32.1875-7.003906 36.1875-.269531 67.628906 24.816406 75.402344 60.152343 1.105469 5.382813 6.339844 8.863282 11.730469 7.804688 3-.582031 6.003906-1.003906 9-1.324219 1.613281-.15625 3.226562-.199219 4.847656-.289062 1.34375-.066407 2.679687-.171875 4-.191407 2 0 4.003906.070313 6 .171876.953125.046874 1.921875.070312 2.871094.136718 2.285156.191406 4.570312.457032 6.851562.808594.582031.085938 1.167969.164062 1.746094.265625 2.421875.410156 4.839844.90625 7.234375 1.488281l1.25.316406c2.429688.632813 4.835938 1.355469 7.210938 2.175782.421874.136718.816406.285156 1.226562.4375 2.332031.824218 4.628906 1.746094 6.878906 2.75l1.421875.667968c2.171875 1 4.320313 2.089844 6.410157 3.273438 29.644531 16.359375 48.125 47.46875 48.320312 81.328125-.707031 52.464844-43.742188 94.460937-96.210938 93.890625h-13.789062c-5.523438 0-10 4.476562-10 10s4.476562 10 10 10h13.789062c63.511719.5625 115.492188-50.386719 116.210938-113.890625-.140625-37.730469-19.070312-72.910156-50.476562-93.820313 6.859374-16.582031 10.417968-34.34375 10.476562-52.289062.039062-61.582031-40.191406-115.953125-99.097656-133.914062-58.90625-17.964844-122.628906 4.699218-156.960938 55.824218-21.015625-14.238281-45.808594-21.871094-71.191406-21.910156-68.773438-.609375-125.074219 54.554688-125.859375 123.328125.015625 9.78125 1.230469 19.519531 3.617187 29-51.714843 6.984375-90.347656 51.050781-90.507812 103.234375zm400-275.5625c66.246094.074219 119.925781 53.753906 120 120 .007812 14.566406-2.675781 29.007812-7.921875 42.597656-.21875-.097656-.457031-.167968-.675781-.269531-3.203125-1.410156-6.476563-2.679687-9.820313-3.796875-.492187-.164062-1-.363281-1.441406-.523438-3.519531-1.136718-7.109375-2.101562-10.761719-2.910156-.359375-.078125-.707031-.183594-1.058594-.269531-3.628906-.769531-7.320312-1.347656-11.058593-1.765625-.382813-.054688-.761719-.140625-1.152344-.179688-4.09375-.429687-8.203125-.648437-12.320313-.652343-4.554687-.003907-9.105468.261719-13.628906.785156-13.058594-40.027344-50.464844-67.058594-92.574218-66.90625-2.664063 0-5.296876.105469-7.894532.320313-7.832031.625-15.550781 2.203124-23.003906 4.6875-.117188-.257813-.277344-.496094-.40625-.757813-1.359375-2.800781-2.839844-5.53125-4.402344-8.203125-.648437-1.105469-1.363281-2.1875-2-3.273438-1.136718-1.8125-2.308594-3.59375-3.542968-5.332031-.859376-1.222656-1.71875-2.433593-2.617188-3.609375-1.140625-1.511718-2.335938-3.003906-3.558594-4.425781-3.238281-3.953125-6.714844-7.707031-10.410156-11.234375 22.164062-33.796875 59.835938-54.195312 100.25-54.28125zm0 0"/><path d="m152.929688 556.070312c3.90625 3.902344 10.234374 3.902344 14.140624 0l22.929688-22.929687v25.859375c0 5.523438 4.476562 10 10 10s10-4.476562 10-10v-25.859375l22.929688 22.929687c3.925781 3.789063 10.160156 3.734376 14.019531-.121093 3.855469-3.859375 3.910156-10.09375.121093-14.019531l-22.929687-22.929688h25.859375c5.523438 0 10-4.476562 10-10s-4.476562-10-10-10h-25.859375l22.929687-22.929688c3.789063-3.925781 3.734376-10.160156-.121093-14.019531-3.859375-3.855469-10.09375-3.910156-14.019531-.121093l-22.929688 22.929687v-25.859375c0-5.523438-4.476562-10-10-10s-10 4.476562-10 10v25.859375l-22.929688-22.929687c-3.925781-3.789063-10.160156-3.734376-14.019531.121093-3.855469 3.859375-3.910156 10.09375-.121093 14.019531l22.929687 22.929688h-25.859375c-5.523438 0-10 4.476562-10 10s4.476562 10 10 10h25.859375l-22.929687 22.929688c-3.902344 3.90625-3.902344 10.234374 0 14.140624zm0 0"/><path d="m360 429c-5.523438 0-10 4.476562-10 10v25.859375l-22.929688-22.929687c-3.925781-3.789063-10.160156-3.734376-14.019531.121093-3.855469 3.859375-3.910156 10.09375-.121093 14.019531l22.929687 22.929688h-25.859375c-5.523438 0-10 4.476562-10 10s4.476562 10 10 10h25.859375l-22.929687 22.929688c-2.597657 2.507812-3.640626 6.230468-2.726563 9.726562s3.644531 6.226562 7.140625 7.140625 7.21875-.128906 9.726562-2.726563l22.929688-22.929687v25.859375c0 5.523438 4.476562 10 10 10s10-4.476562 10-10v-25.859375l22.929688 22.929687c3.925781 3.789063 10.160156 3.734376 14.019531-.121093 3.855469-3.859375 3.910156-10.09375.121093-14.019531l-22.929687-22.929688h25.859375c5.523438 0 10-4.476562 10-10s-4.476562-10-10-10h-25.859375l22.929687-22.929688c3.789063-3.925781 3.734376-10.160156-.121093-14.019531-3.859375-3.855469-10.09375-3.910156-14.019531-.121093l-22.929688 22.929687v-25.859375c0-5.523438-4.476562-10-10-10zm0 0"/><path d="m200 369c0 5.523438 4.476562 10 10 10h25.859375l-22.929687 22.929688c-2.597657 2.507812-3.640626 6.230468-2.726563 9.726562s3.644531 6.226562 7.140625 7.140625 7.21875-.128906 9.726562-2.726563l22.929688-22.929687v25.859375c0 5.523438 4.476562 10 10 10s10-4.476562 10-10v-25.859375l22.929688 22.929687c3.925781 3.789063 10.160156 3.734376 14.019531-.121093 3.855469-3.859375 3.910156-10.09375.121093-14.019531l-22.929687-22.929688h25.859375c5.523438 0 10-4.476562 10-10s-4.476562-10-10-10h-25.859375l22.929687-22.929688c3.789063-3.925781 3.734376-10.160156-.121093-14.019531-3.859375-3.855469-10.09375-3.910156-14.019531-.121093l-22.929688 22.929687v-25.859375c0-5.523438-4.476562-10-10-10s-10 4.476562-10 10v25.859375l-22.929688-22.929687c-3.925781-3.789063-10.160156-3.734376-14.019531.121093-3.855469 3.859375-3.910156 10.09375-.121093 14.019531l22.929687 22.929688h-25.859375c-5.523438 0-10 4.476562-10 10zm0 0"/></svg>