<svg height="40px" viewBox="-20 -79 40 40" width="40px" xmlns="http://www.w3.org/2000/svg"><path d="m478.90625 136.140625c-4.785156.007813-9.5625.292969-14.3125.863281-12.890625-41.988281-51.628906-70.679687-95.550781-70.773437-10.933594-.011719-21.789063 1.804687-32.121094 5.363281-25.578125-55.304688-86.195313-85.367188-145.699219-72.246094-59.511718 13.117188-101.867187 65.871094-101.824218 126.804688.003906 10.53125 1.316406 21.019531 3.890624 31.222656-56.695312 8.65625-97.203124 59.46875-92.988281 116.667969 4.207031 57.203125 51.71875 101.542969 109.070313 101.796875 5.515625 0 9.988281-4.46875 9.988281-9.988282 0-5.515624-4.472656-9.988281-9.988281-9.988281-49.238282.210938-89.460938-39.257812-90.191406-88.492187-.734376-49.226563 38.304687-89.875 87.523437-91.128906 3.191406-.097657 6.144531-1.710938 7.945313-4.351563 1.804687-2.632813 2.234374-5.972656 1.164062-8.980469-20.128906-56.820312 9.339844-119.238281 65.996094-139.808594 56.664062-20.570312 119.308594 8.40625 140.324218 64.902344.96875 2.609375 2.984376 4.695313 5.554688 5.757813 2.574219 1.066406 5.46875 1 7.996094-.164063 10.449218-4.863281 21.835937-7.382812 33.359375-7.394531 38 .070313 70.722656 26.835937 78.3125 64.070313 1.085937 5.414062 6.359375 8.914062 11.765625 7.824218 37.308594-7.539062 75.65625 6.785156 98.890625 36.933594 23.226562 30.152344 27.304687 70.886719 10.503906 105.039062-16.796875 34.15625-51.546875 55.792969-89.609375 55.792969h-9.988281c-5.515625 0-9.988281 4.472657-9.988281 9.988281 0 5.519532 4.472656 9.988282 9.988281 9.988282h9.988281c66.191406 0 119.847656-53.660156 119.847656-119.847656 0-66.191407-53.65625-119.851563-119.847656-119.851563zm0 0"/><path d="m299.132812 375.839844c-27.582031 0-49.9375 22.359375-49.9375 49.9375 0 27.582031 22.355469 49.9375 49.9375 49.9375 27.578126 0 49.9375-22.355469 49.9375-49.9375-.035156-27.5625-22.375-49.902344-49.9375-49.9375zm0 79.898437c-16.546874 0-29.960937-13.410156-29.960937-29.960937 0-16.546875 13.414063-29.964844 29.960937-29.964844 16.546876 0 29.960938 13.417969 29.960938 29.964844 0 16.550781-13.414062 29.960937-29.960938 29.960937zm0 0"/><path d="m279.15625 255.992188c-27.582031 0-49.933594 22.359374-49.933594 49.933593 0 27.585938 22.351563 49.9375 49.933594 49.9375 27.578125 0 49.9375-22.351562 49.9375-49.9375-.03125-27.5625-22.371094-49.902343-49.9375-49.933593zm0 79.898437c-16.542969 0-29.960938-13.410156-29.960938-29.964844 0-16.542969 13.417969-29.960937 29.960938-29.960937 16.546875 0 29.964844 13.417968 29.964844 29.960937 0 16.554688-13.417969 29.964844-29.964844 29.964844zm0 0"/><path d="m139.335938 385.828125c0 5.519531 4.46875 9.984375 9.984374 9.984375h15.839844l-12.914062 12.917969c-2.597656 2.507812-3.636719 6.21875-2.722656 9.710937.914062 3.492188 3.640624 6.21875 7.132812 7.136719 3.492188.910156 7.207031-.128906 9.714844-2.726563l12.914062-12.914062v15.839844c0 5.519531 4.472656 9.984375 9.988282 9.984375 5.511718 0 9.984374-4.464844 9.984374-9.984375v-15.839844l12.914063 12.914062c3.917969 3.789063 10.148437 3.730469 14-.125 3.855469-3.851562 3.90625-10.078124.125-13.996093l-12.914063-12.917969h15.839844c5.515625 0 9.984375-4.464844 9.984375-9.984375 0-5.515625-4.46875-9.988281-9.984375-9.988281h-15.839844l12.914063-12.914063c3.78125-3.914062 3.730469-10.148437-.125-14-3.851563-3.851562-10.082031-3.90625-14-.117187l-12.914063 12.914062v-15.84375c0-5.515625-4.472656-9.988281-9.984374-9.988281-5.515626 0-9.988282 4.472656-9.988282 9.988281v15.84375l-12.914062-12.914062c-3.921875-3.789063-10.148438-3.734375-14 .117187-3.855469 3.851563-3.90625 10.085938-.125 14l12.914062 12.914063h-15.839844c-5.515624 0-9.984374 4.472656-9.984374 9.988281zm0 0"/><path d="m339.082031 345.878906c0 5.519532 4.472657 9.984375 9.988281 9.984375h15.839844l-12.914062 12.917969c-2.597656 2.507812-3.636719 6.21875-2.726563 9.710938.917969 3.492187 3.644531 6.21875 7.136719 7.132812 3.488281.914062 7.207031-.125 9.710938-2.722656l12.914062-12.914063v15.839844c0 5.519531 4.472656 9.984375 9.988281 9.984375s9.988281-4.464844 9.988281-9.984375v-15.839844l12.914063 12.914063c3.914063 3.789062 10.148437 3.730468 14-.125 3.851563-3.851563 3.90625-10.078125.121094-13.996094l-12.914063-12.917969h15.839844c5.515625 0 9.988281-4.464843 9.988281-9.984375 0-5.515625-4.472656-9.988281-9.988281-9.988281h-15.839844l12.914063-12.914063c3.785156-3.917968 3.730469-10.148437-.121094-14-3.851563-3.855468-10.085937-3.90625-14-.117187l-12.914063 12.914063v-15.847657c0-5.515625-4.472656-9.984375-9.988281-9.984375s-9.988281 4.46875-9.988281 9.984375v15.847657l-12.914062-12.914063c-3.917969-3.789063-10.148438-3.738281-14 .117187-3.851563 3.851563-3.90625 10.082032-.121094 14l12.914062 12.914063h-15.839844c-5.515624 0-9.988281 4.472656-9.988281 9.988281zm0 0"/></svg>