<svg height="40px" viewBox="-79 -19 40 40" width="40px" xmlns="http://www.w3.org/2000/svg"><path d="m6.332031 299.992188h186.734375l-76.359375 267.242187c-1.320312 4.582031.785157 9.460937 5.023438 11.648437 4.238281 2.191407 9.433593 1.078126 12.40625-2.652343l319.988281-399.984375c2.402344-3.003906 2.871094-7.117188 1.207031-10.582032-1.664062-3.46875-5.171875-5.667968-9.011719-5.667968h-183.820312l72.820312-145.527344c1.554688-3.105469 1.382813-6.796875-.453124-9.75-1.835938-2.949219-5.074219-4.7382812-8.542969-4.71875h-199.996094c-3.996094 0-7.617187 2.382812-9.1875 6.058594l-119.996094 279.992187c-1.328125 3.089844-1.011719 6.640625.839844 9.441407 1.851563 2.808593 4.984375 4.5 8.347656 4.5zm126.582031-279.992188h177.226563l-72.820313 145.527344c-1.550781 3.105468-1.378906 6.796875.457032 9.75 1.835937 2.949218 5.070312 4.738281 8.546875 4.71875h179.183593l-275.894531 344.867187 66.332031-232.125c.863282-3.015625.257813-6.261719-1.628906-8.769531-1.894531-2.507812-4.851562-3.976562-7.988281-3.976562h-184.828125zm0 0"/></svg>