<svg height="40px" viewBox="-20 -30 40 40" width="40px" xmlns="http://www.w3.org/2000/svg"><path d="m51.9375 136.949219c-12.609375 14.847656-15.445312 35.664062-7.273438 53.347656 8.179688 17.683594 25.878907 29.003906 45.359376 29.007813h10c-11.359376 15.152343-13.1875 35.417968-4.722657 52.359374 8.472657 16.933594 25.777344 27.632813 44.71875 27.632813-11.363281 15.148437-13.1875 35.414063-4.722656 52.355469 8.46875 16.9375 25.777344 27.632812 44.714844 27.632812h31.707031c-3.246094 9.183594-1.832031 19.367188 3.792969 27.320313 5.617187 7.949219 14.753906 12.675781 24.492187 12.675781h41.703125c-5.214843 14.742188 1.777344 31.019531 16.058594 37.394531-3.28125 7.105469-3.660156 15.214844-1.058594 22.597657h-1.710937c-9.738282 0-18.875 4.726562-24.492188 12.671874-5.625 7.953126-7.039062 18.136719-3.792968 27.320313h-16.707032c-16.566406 0-29.996094 13.433594-29.996094 29.996094 0 16.566406 13.429688 29.996093 29.996094 29.996093h79.988282c9.742187 0 18.875-4.726562 24.496093-12.671874 5.621094-7.953126 7.039063-18.136719 3.792969-27.320313h56.699219c9.742187 0 18.875-4.726563 24.496093-12.675781 5.625-7.953125 7.039063-18.136719 3.792969-27.320313h41.703125c9.738282 0 18.875-4.726562 24.492188-12.675781 5.625-7.953125 7.042968-18.136719 3.796875-27.320312h16.703125c9.742187 0 18.875-4.722657 24.496094-12.671876 5.625-7.953124 7.039062-18.136718 3.792968-27.320312h1.707032c16.566406 0 29.996093-13.433594 29.996093-29.996094 0-16.566406-13.429687-29.996094-29.996093-29.996094 11.363281-15.152343 13.191406-35.417968 4.722656-52.351562-8.46875-16.941406-25.777344-27.640625-44.714844-27.640625 13.601562-18.089844 13.328125-43.074219-.667969-60.859375 17.484375-3.320312 31.886719-15.6875 37.816407-32.472656 5.925781-16.785156 2.484374-35.453125-9.042969-49.015625 33.957031-9.070313 55.921875-41.910157 51.335937-76.753907-4.582031-34.84375-34.296875-60.882812-69.445312-60.859374h-459.9375c-35.140625-.015626-64.84375 26.03125-69.425782 60.871093-4.578124 34.839844 17.386719 67.675781 51.335938 76.742188zm18.089844-117.617188h459.9375c27.609375 0 49.996094 22.386719 49.996094 49.996094 0 27.605469-22.386719 49.992187-49.996094 49.992187h-19.996094c-5.519531 0-10 4.476563-10 9.996094 0 5.523438 4.480469 10 10 10 16.566406 0 29.996094 13.429688 29.996094 29.996094s-13.429688 29.996094-29.996094 29.996094h-29.996094c-5.519531 0-10 4.476562-10 10 0 5.519531 4.480469 9.996094 10 9.996094 16.566406 0 29.996094 13.433593 29.996094 29.996093 0 16.566407-13.429688 29.996094-29.996094 29.996094-5.519531 0-10 4.480469-10 10 0 5.523437 4.480469 10 10 10h39.996094c16.5625 0 29.996094 13.429687 29.996094 29.996094 0 16.5625-13.433594 29.996093-29.996094 29.996093-5.523438 0-10 4.476563-10 9.996094 0 5.523438 4.476562 10 10 10h39.992188c5.523437 0 10 4.476563 10 10 0 5.519532-4.476563 9.996094-10 9.996094h-29.996094c-5.519532 0-9.996094 4.476562-9.996094 10s4.476562 10 9.996094 10c5.523437 0 10 4.476562 10 9.996094 0 5.523437-4.476563 10-10 10h-44.992188c-5.523437 0-10 4.476562-10 10 0 5.519531 4.476563 9.996094 10 9.996094 5.523438 0 10 4.476562 10 10 0 5.523437-4.476562 10-10 10h-69.992187c-5.519531 0-9.996094 4.476562-9.996094 9.996093 0 5.523438 4.476563 10 9.996094 10 5.523437 0 10 4.476563 10 10 0 5.519531-4.476563 9.996094-10 9.996094h-84.988281c-5.519532 0-9.996094 4.476563-9.996094 10s4.476562 10 9.996094 10c5.523437 0 10 4.476563 10 9.996094 0 5.523437-4.476563 10-10 10h-79.988282c-5.523437 0-10-4.476563-10-10 0-5.519531 4.476563-9.996094 10-9.996094h44.992188c5.523437 0 10-4.476563 10-10s-4.476563-10-10-10c-5.519532 0-9.996094-4.476563-9.996094-9.996094 0-5.523437 4.476562-10 9.996094-10h29.996094c5.523437 0 10-4.476562 10-10 0-5.519531-4.476563-9.996093-10-9.996093-5.519532 0-9.996094-4.476563-9.996094-10 0-5.523438 4.476562-10 9.996094-10 5.523437 0 10-4.476563 10-9.996094 0-5.523438-4.476563-10-10-10h-14.996094c-5.523438 0-10-4.476563-10-10 0-5.519532 4.476562-9.996094 10-9.996094 5.519531 0 10-4.476562 10-10s-4.480469-10-10-10h-69.992188c-5.519531 0-9.996094-4.476562-9.996094-9.996094 0-5.523437 4.476563-10 9.996094-10 5.523438 0 10-4.476562 10-10 0-5.519531-4.476562-9.996094-10-9.996094h-59.992187c-16.5625 0-29.996094-13.433593-29.996094-29.996093 0-16.566407 13.433594-29.996094 29.996094-29.996094 5.523437 0 10-4.476563 10-10 0-5.519531-4.476563-10-10-10h-39.992188c-16.566406 0-29.996093-13.429687-29.996093-29.996094 0-16.5625 13.429687-29.996093 29.996093-29.996093 5.519531 0 9.996094-4.476563 9.996094-9.996094 0-5.523438-4.476563-10-9.996094-10h-49.996093c-16.5625 0-29.996094-13.429688-29.996094-29.996094s13.433594-29.996094 29.996094-29.996094c5.523437 0 10-4.476562 10-10 0-5.519531-4.476563-9.996094-10-9.996094h-19.996094c-27.609375 0-49.992188-22.386718-49.992188-49.992187 0-27.609375 22.382813-49.996094 49.992188-49.996094zm0 0"/></svg>